<svg width="512" height="512" viewBox="0 0 512 512" xmlns="http://www.w3.org/2000/svg">
  <defs>
    <linearGradient id="bg-gradient" x1="0%" y1="0%" x2="100%" y2="100%">
      <stop offset="0%" stop-color="#dfa6a6" />
      <stop offset="100%" stop-color="#b87b7b" />
    </linearGradient>
    <filter id="shadow" x="-20%" y="-20%" width="140%" height="140%">
      <feDropShadow dx="0" dy="8" stdDeviation="12" flood-color="#000000" flood-opacity="0.15"/>
    </filter>
  </defs>
  
  <rect width="512" height="512" rx="120" fill="url(#bg-gradient)" />
  
  <g transform="translate(106, 156) scale(6)" filter="url(#shadow)">
     <!-- Infinity Heart Path in White -->
     <path fill="#ffffff" d="M25 5c-4.4 0-8 3.6-8 8 0 3.2 1.9 6.2 5 7.6l-5 5c-1.4-3.1-4.4-5-7.6-5-4.4 0-8 3.6-8 8s3.6 8 8 8c3.2 0 6.2-1.9 7.6-5l5-5c1.4 3.1 4.4 5 7.6 5 4.4 0 8-3.6 8-8 0-3.2-1.9-6.2-5-7.6l5-5c1.4 3.1 4.4 5 7.6 5 4.4 0 8-3.6 8-8s-3.6-8-8-8c-3.2 0-6.2 1.9-7.6 5l-5 5c-1.4-3.1-4.4-5-7.6-5z m0 3c 2.2 0 4 1.8 4 4 0 2.2-1.8 4-4 4-1.3 0-2.6-0.6-3.3-1.7l1.7-1.7c0.4 0.9 1.4 1.4 2.5 1.3 1.1-0.1 2-1 2.1-2.1 0.1-1.1-0.5-2.1-1.3-2.5l-1.7 1.7ZM 7.6 23.6c 0.9 0 1.9 0.4 2.5 1.1l-1.7 1.7c-0.4-0.8-1.4-1.3-2.5-1.2-1.1 0.1-2 1-2.1 2.1-0.1 1.1 0.5 2.1 1.3 2.5l1.7-1.7c-0.6-1-1.8-1.7-3.1-1.7-2.2 0-4-1.8-4-4 0-2.2 1.8-4 4-4 2.2 0 4 1.8 4 4 0 1.3-0.6 2.6-1.7 3.3l1.7 1.7z" />
  </g>
</svg>
